<svg id="visual" viewBox="0 0 900 600" width="900" height="600" xmlns="http://www.w3.org/2000/svg" xmlns:xlink="http://www.w3.org/1999/xlink" version="1.1"><rect x="0" y="0" width="900" height="600" fill="#000000"></rect><defs><linearGradient id="grad1_0" x1="33.3%" y1="100%" x2="100%" y2="0%"><stop offset="20%" stop-color="#000000" stop-opacity="1"></stop><stop offset="80%" stop-color="#000000" stop-opacity="1"></stop></linearGradient></defs><defs><linearGradient id="grad2_0" x1="0%" y1="100%" x2="66.7%" y2="0%"><stop offset="20%" stop-color="#000000" stop-opacity="1"></stop><stop offset="80%" stop-color="#000000" stop-opacity="1"></stop></linearGradient></defs><g transform="translate(900, 600)"><path d="M-405.6 0C-302.9 -17.4 -200.2 -34.8 -179.3 -103.5C-158.3 -172.2 -219.1 -292.4 -202.8 -351.3C-186.6 -410.2 -93.3 -407.9 0 -405.6L0 0Z" fill="#FF8000"></path></g><g transform="translate(0, 0)"><path d="M405.6 0C405.4 89 405.3 178 351.3 202.8C297.3 227.6 189.5 188.2 122 211.3C54.5 234.4 27.2 320 0 405.6L0 0Z" fill="#FF8000"></path></g></svg>